<mxfile host="app.diagrams.net" modified="2023-05-05T07:57:09.204Z" agent="Mozilla/5.0 (Windows NT 10.0; Win64; x64) AppleWebKit/537.36 (KHTML, like Gecko) Chrome/112.0.0.0 Safari/537.36" etag="v_sTVLUQf9XCLlBVZAhg" version="21.2.7" type="device">
  <diagram name="Page-1" id="2ca16b54-16f6-2749-3443-fa8db7711227">
    <mxGraphModel dx="3044" dy="1447" grid="0" gridSize="10" guides="1" tooltips="1" connect="1" arrows="1" fold="1" page="1" pageScale="1" pageWidth="1100" pageHeight="850" background="#ffffff" math="0" shadow="0">
      <root>
        <mxCell id="0" />
        <mxCell id="1" parent="0" />
        <mxCell id="npQP1m-oYdjklv1HS_uw-22" value="Projet :&amp;nbsp; &amp;nbsp; &amp;nbsp; &amp;nbsp; &amp;nbsp;MCD TPI&lt;br&gt;&lt;div style=&quot;text-align: center&quot;&gt;&lt;span&gt;Auteur :&amp;nbsp; &amp;nbsp; &amp;nbsp; &amp;nbsp; Benjamin Muminovic&lt;/span&gt;&lt;/div&gt;&lt;div&gt;Date :&amp;nbsp; &amp;nbsp; &amp;nbsp; &amp;nbsp; &amp;nbsp; &amp;nbsp;04.05.2023&lt;/div&gt;" style="rounded=0;whiteSpace=wrap;html=1;labelBackgroundColor=none;strokeColor=#82b366;fontSize=16;align=left;fillColor=#d5e8d4;" parent="1" vertex="1">
          <mxGeometry x="20" y="134" width="250" height="90" as="geometry" />
        </mxCell>
        <mxCell id="bio7cnZPhz_ygDP4MrID-1" value="&lt;div style=&quot;box-sizing: border-box ; width: 100% ; padding: 2px&quot;&gt;&lt;span style=&quot;background-color: rgb(255, 255, 255);&quot;&gt;&lt;b&gt;Utilisateurs&lt;/b&gt;&lt;/span&gt;&lt;/div&gt;&lt;hr&gt;&lt;table style=&quot;width: 100% ; font-size: 1em&quot; cellpadding=&quot;2&quot; cellspacing=&quot;0&quot;&gt;&lt;tbody style=&quot;font-size: 13px&quot;&gt;&lt;tr&gt;&lt;td style=&quot;text-align: left&quot;&gt;&lt;u&gt;E-Mail&lt;/u&gt;&lt;/td&gt;&lt;td style=&quot;text-align: right&quot;&gt;Texte&lt;/td&gt;&lt;/tr&gt;&lt;tr&gt;&lt;td style=&quot;text-align: left;&quot;&gt;&lt;u&gt;Nom d&#39;utilisateur&lt;/u&gt;&lt;/td&gt;&lt;td style=&quot;text-align: right;&quot;&gt;Texte&lt;/td&gt;&lt;/tr&gt;&lt;tr&gt;&lt;td style=&quot;text-align: left;&quot;&gt;Mot de passe&lt;/td&gt;&lt;td style=&quot;text-align: right;&quot;&gt;Texte&lt;/td&gt;&lt;/tr&gt;&lt;tr&gt;&lt;td style=&quot;text-align: left;&quot;&gt;Jeton d&#39;inscription&lt;/td&gt;&lt;td style=&quot;text-align: right;&quot;&gt;Texte&lt;/td&gt;&lt;/tr&gt;&lt;tr&gt;&lt;td style=&quot;text-align: left;&quot;&gt;Administrateur&lt;/td&gt;&lt;td style=&quot;text-align: right;&quot;&gt;Booléen&lt;/td&gt;&lt;/tr&gt;&lt;tr&gt;&lt;td style=&quot;text-align: left;&quot;&gt;Bloqué&lt;/td&gt;&lt;td style=&quot;text-align: right;&quot;&gt;Booléen&lt;/td&gt;&lt;/tr&gt;&lt;tr&gt;&lt;td style=&quot;text-align: left;&quot;&gt;Confirmé&lt;/td&gt;&lt;td style=&quot;text-align: right;&quot;&gt;Booléen&lt;/td&gt;&lt;/tr&gt;&lt;/tbody&gt;&lt;/table&gt;" style="verticalAlign=top;align=center;overflow=fill;html=1;rounded=0;shadow=0;comic=0;labelBackgroundColor=none;strokeColor=#000000;strokeWidth=1;fillColor=#ffffff;fontFamily=Verdana;fontSize=12;fontColor=#000000;" parent="1" vertex="1">
          <mxGeometry x="365" y="89" width="230" height="180" as="geometry" />
        </mxCell>
        <mxCell id="bio7cnZPhz_ygDP4MrID-3" value="&lt;div style=&quot;box-sizing: border-box ; width: 100% ; padding: 2px&quot;&gt;&lt;span style=&quot;background-color: rgb(255, 255, 255);&quot;&gt;&lt;b&gt;Postes&lt;/b&gt;&lt;/span&gt;&lt;/div&gt;&lt;hr&gt;&lt;table style=&quot;width: 100% ; font-size: 1em&quot; cellpadding=&quot;2&quot; cellspacing=&quot;0&quot;&gt;&lt;tbody style=&quot;font-size: 13px&quot;&gt;&lt;tr&gt;&lt;td style=&quot;text-align: left;&quot;&gt;Titre&lt;/td&gt;&lt;td style=&quot;text-align: right;&quot;&gt;Texte&lt;/td&gt;&lt;/tr&gt;&lt;tr&gt;&lt;td style=&quot;text-align: left;&quot;&gt;Date de création&lt;/td&gt;&lt;td style=&quot;text-align: right;&quot;&gt;Date&lt;/td&gt;&lt;/tr&gt;&lt;tr&gt;&lt;td style=&quot;text-align: left;&quot;&gt;Lien image&lt;/td&gt;&lt;td style=&quot;text-align: right;&quot;&gt;Texte&lt;/td&gt;&lt;/tr&gt;&lt;tr&gt;&lt;td style=&quot;text-align: left;&quot;&gt;Fermé&lt;/td&gt;&lt;td style=&quot;text-align: right;&quot;&gt;Booléen&lt;/td&gt;&lt;/tr&gt;&lt;/tbody&gt;&lt;/table&gt;" style="verticalAlign=top;align=center;overflow=fill;html=1;rounded=0;shadow=0;comic=0;labelBackgroundColor=none;strokeColor=#000000;strokeWidth=1;fillColor=#ffffff;fontFamily=Verdana;fontSize=12;fontColor=#000000;" parent="1" vertex="1">
          <mxGeometry x="365" y="546.9399999999999" width="230" height="115.12" as="geometry" />
        </mxCell>
        <mxCell id="bio7cnZPhz_ygDP4MrID-4" value="&lt;div style=&quot;box-sizing: border-box ; width: 100% ; padding: 2px&quot;&gt;&lt;span style=&quot;background-color: rgb(255, 255, 255);&quot;&gt;&lt;b&gt;Poster&lt;/b&gt;&lt;/span&gt;&lt;/div&gt;&lt;hr&gt;&lt;table style=&quot;width: 100% ; font-size: 1em&quot; cellpadding=&quot;2&quot; cellspacing=&quot;0&quot;&gt;&lt;tbody&gt;&lt;tr&gt;&lt;td style=&quot;text-align: left;&quot;&gt;&lt;/td&gt;&lt;td style=&quot;text-align: right&quot;&gt;&lt;br&gt;&lt;/td&gt;&lt;/tr&gt;&lt;/tbody&gt;&lt;/table&gt;" style="verticalAlign=top;align=center;overflow=fill;html=1;rounded=1;shadow=0;comic=0;labelBackgroundColor=none;strokeColor=#000000;strokeWidth=1;fillColor=#ffffff;fontFamily=Verdana;fontSize=12;fontColor=#000000;" parent="1" vertex="1">
          <mxGeometry x="413.75" y="374" width="132.5" height="55" as="geometry" />
        </mxCell>
        <mxCell id="bio7cnZPhz_ygDP4MrID-6" value="" style="endArrow=none;html=1;entryX=0.5;entryY=1;entryDx=0;entryDy=0;exitX=0.5;exitY=0;exitDx=0;exitDy=0;startArrow=none;" parent="1" source="bio7cnZPhz_ygDP4MrID-5" target="bio7cnZPhz_ygDP4MrID-1" edge="1">
          <mxGeometry width="50" height="50" relative="1" as="geometry">
            <mxPoint x="375" y="159.18252294604872" as="sourcePoint" />
            <mxPoint x="311.32000000000016" y="114.99000000000001" as="targetPoint" />
          </mxGeometry>
        </mxCell>
        <mxCell id="bio7cnZPhz_ygDP4MrID-7" value="" style="endArrow=none;html=1;startArrow=none;" parent="1" source="bio7cnZPhz_ygDP4MrID-10" target="bio7cnZPhz_ygDP4MrID-3" edge="1">
          <mxGeometry width="50" height="50" relative="1" as="geometry">
            <mxPoint x="385" y="169.18252294604872" as="sourcePoint" />
            <mxPoint x="485" y="508.99" as="targetPoint" />
          </mxGeometry>
        </mxCell>
        <mxCell id="bio7cnZPhz_ygDP4MrID-9" value="" style="endArrow=none;html=1;entryX=0.5;entryY=1;entryDx=0;entryDy=0;exitX=0.5;exitY=0;exitDx=0;exitDy=0;" parent="1" source="bio7cnZPhz_ygDP4MrID-4" target="bio7cnZPhz_ygDP4MrID-5" edge="1">
          <mxGeometry width="50" height="50" relative="1" as="geometry">
            <mxPoint x="480" y="388.99" as="sourcePoint" />
            <mxPoint x="480" y="318.99" as="targetPoint" />
          </mxGeometry>
        </mxCell>
        <mxCell id="bio7cnZPhz_ygDP4MrID-5" value="1,n" style="text;html=1;align=center;verticalAlign=middle;resizable=0;points=[];autosize=1;" parent="1" vertex="1">
          <mxGeometry x="460" y="314" width="40" height="30" as="geometry" />
        </mxCell>
        <mxCell id="bio7cnZPhz_ygDP4MrID-11" value="" style="endArrow=none;html=1;" parent="1" source="bio7cnZPhz_ygDP4MrID-4" target="bio7cnZPhz_ygDP4MrID-10" edge="1">
          <mxGeometry width="50" height="50" relative="1" as="geometry">
            <mxPoint x="480" y="443.99" as="sourcePoint" />
            <mxPoint x="480" y="518.99" as="targetPoint" />
          </mxGeometry>
        </mxCell>
        <mxCell id="bio7cnZPhz_ygDP4MrID-10" value="1,1" style="text;html=1;align=center;verticalAlign=middle;resizable=0;points=[];autosize=1;" parent="1" vertex="1">
          <mxGeometry x="460" y="470.99" width="40" height="30" as="geometry" />
        </mxCell>
        <mxCell id="doX4jDXikGPnbUZMQCEO-9" value="&lt;div style=&quot;box-sizing: border-box ; width: 100% ; padding: 2px&quot;&gt;&lt;span style=&quot;background-color: rgb(255, 255, 255);&quot;&gt;&lt;b&gt;Utiliser&lt;/b&gt;&lt;/span&gt;&lt;/div&gt;&lt;hr&gt;&lt;table style=&quot;width: 100% ; font-size: 1em&quot; cellpadding=&quot;2&quot; cellspacing=&quot;0&quot;&gt;&lt;tbody&gt;&lt;tr&gt;&lt;td style=&quot;text-align: left&quot;&gt;&lt;br&gt;&lt;/td&gt;&lt;td style=&quot;text-align: right&quot;&gt;&lt;br&gt;&lt;/td&gt;&lt;/tr&gt;&lt;/tbody&gt;&lt;/table&gt;" style="verticalAlign=top;align=center;overflow=fill;html=1;rounded=1;shadow=0;comic=0;labelBackgroundColor=none;strokeColor=#000000;strokeWidth=1;fillColor=#ffffff;fontFamily=Verdana;fontSize=12;fontColor=#000000;" parent="1" vertex="1">
          <mxGeometry x="110" y="577" width="150" height="55" as="geometry" />
        </mxCell>
        <mxCell id="doX4jDXikGPnbUZMQCEO-10" value="&lt;div style=&quot;box-sizing: border-box ; width: 100% ; padding: 2px&quot;&gt;&lt;span style=&quot;background-color: rgb(255, 255, 255);&quot;&gt;&lt;b&gt;Thème&lt;/b&gt;&lt;/span&gt;&lt;/div&gt;&lt;hr&gt;&lt;table style=&quot;width: 100% ; font-size: 1em&quot; cellpadding=&quot;2&quot; cellspacing=&quot;0&quot;&gt;&lt;tbody style=&quot;font-size: 13px&quot;&gt;&lt;tr&gt;&lt;td style=&quot;text-align: left&quot;&gt;&lt;u&gt;Nom&lt;/u&gt;&lt;/td&gt;&lt;td style=&quot;text-align: right&quot;&gt;Texte&lt;/td&gt;&lt;/tr&gt;&lt;/tbody&gt;&lt;/table&gt;" style="verticalAlign=top;align=center;overflow=fill;html=1;rounded=0;shadow=0;comic=0;labelBackgroundColor=none;strokeColor=#000000;strokeWidth=1;fillColor=#ffffff;fontFamily=Verdana;fontSize=12;fontColor=#000000;" parent="1" vertex="1">
          <mxGeometry x="100" y="374" width="170" height="70" as="geometry" />
        </mxCell>
        <mxCell id="doX4jDXikGPnbUZMQCEO-11" value="" style="endArrow=none;html=1;startArrow=none;entryX=0.5;entryY=0;entryDx=0;entryDy=0;" parent="1" source="doX4jDXikGPnbUZMQCEO-13" target="doX4jDXikGPnbUZMQCEO-9" edge="1">
          <mxGeometry width="50" height="50" relative="1" as="geometry">
            <mxPoint x="190" y="196.17252294604873" as="sourcePoint" />
            <mxPoint x="-20" y="581.04" as="targetPoint" />
          </mxGeometry>
        </mxCell>
        <mxCell id="doX4jDXikGPnbUZMQCEO-12" value="" style="endArrow=none;html=1;exitX=0.5;exitY=1;exitDx=0;exitDy=0;" parent="1" source="doX4jDXikGPnbUZMQCEO-10" target="doX4jDXikGPnbUZMQCEO-13" edge="1">
          <mxGeometry width="50" height="50" relative="1" as="geometry">
            <mxPoint x="-20" y="460.99" as="sourcePoint" />
            <mxPoint x="285" y="545.98" as="targetPoint" />
          </mxGeometry>
        </mxCell>
        <mxCell id="doX4jDXikGPnbUZMQCEO-13" value="0,n" style="text;html=1;align=center;verticalAlign=middle;resizable=0;points=[];autosize=1;" parent="1" vertex="1">
          <mxGeometry x="165" y="489" width="40" height="30" as="geometry" />
        </mxCell>
        <mxCell id="doX4jDXikGPnbUZMQCEO-14" value="" style="endArrow=none;html=1;startArrow=none;entryX=1;entryY=0.5;entryDx=0;entryDy=0;" parent="1" source="doX4jDXikGPnbUZMQCEO-16" target="doX4jDXikGPnbUZMQCEO-9" edge="1">
          <mxGeometry width="50" height="50" relative="1" as="geometry">
            <mxPoint x="405" y="189.18252294604872" as="sourcePoint" />
            <mxPoint x="500" y="535" as="targetPoint" />
          </mxGeometry>
        </mxCell>
        <mxCell id="doX4jDXikGPnbUZMQCEO-15" value="" style="endArrow=none;html=1;exitX=0;exitY=0.5;exitDx=0;exitDy=0;" parent="1" source="bio7cnZPhz_ygDP4MrID-3" target="doX4jDXikGPnbUZMQCEO-16" edge="1">
          <mxGeometry width="50" height="50" relative="1" as="geometry">
            <mxPoint x="500" y="449" as="sourcePoint" />
            <mxPoint x="500" y="538.99" as="targetPoint" />
          </mxGeometry>
        </mxCell>
        <mxCell id="doX4jDXikGPnbUZMQCEO-16" value="1,1" style="text;html=1;align=center;verticalAlign=middle;resizable=0;points=[];autosize=1;" parent="1" vertex="1">
          <mxGeometry x="290" y="589.5" width="40" height="30" as="geometry" />
        </mxCell>
        <mxCell id="doX4jDXikGPnbUZMQCEO-17" value="&lt;div style=&quot;box-sizing: border-box ; width: 100% ; padding: 2px&quot;&gt;&lt;span style=&quot;background-color: rgb(255, 255, 255);&quot;&gt;&lt;b&gt;Commenter&lt;/b&gt;&lt;/span&gt;&lt;/div&gt;&lt;hr&gt;&lt;table style=&quot;width: 100% ; font-size: 1em&quot; cellpadding=&quot;2&quot; cellspacing=&quot;0&quot;&gt;&lt;tbody&gt;&lt;tr&gt;&lt;td style=&quot;text-align: left;&quot;&gt;&lt;br&gt;&lt;/td&gt;&lt;td style=&quot;text-align: right&quot;&gt;&lt;br&gt;&lt;/td&gt;&lt;/tr&gt;&lt;/tbody&gt;&lt;/table&gt;" style="verticalAlign=top;align=center;overflow=fill;html=1;rounded=1;shadow=0;comic=0;labelBackgroundColor=none;strokeColor=#000000;strokeWidth=1;fillColor=#ffffff;fontFamily=Verdana;fontSize=12;fontColor=#000000;" parent="1" vertex="1">
          <mxGeometry x="726.88" y="151.5" width="136.25" height="55" as="geometry" />
        </mxCell>
        <mxCell id="doX4jDXikGPnbUZMQCEO-18" value="&lt;div style=&quot;box-sizing: border-box ; width: 100% ; padding: 2px&quot;&gt;&lt;span style=&quot;background-color: rgb(255, 255, 255);&quot;&gt;&lt;b&gt;Commentaires&lt;/b&gt;&lt;/span&gt;&lt;/div&gt;&lt;hr&gt;&lt;table style=&quot;width: 100% ; font-size: 1em&quot; cellpadding=&quot;2&quot; cellspacing=&quot;0&quot;&gt;&lt;tbody style=&quot;font-size: 13px&quot;&gt;&lt;tr&gt;&lt;td style=&quot;text-align: left;&quot;&gt;Texte&lt;/td&gt;&lt;td style=&quot;text-align: right;&quot;&gt;Texte&lt;/td&gt;&lt;/tr&gt;&lt;tr&gt;&lt;td style=&quot;text-align: left;&quot;&gt;Date de création&lt;/td&gt;&lt;td style=&quot;text-align: right;&quot;&gt;Date&lt;/td&gt;&lt;/tr&gt;&lt;tr&gt;&lt;td style=&quot;text-align: left;&quot;&gt;Lien image&lt;/td&gt;&lt;td style=&quot;text-align: right;&quot;&gt;Texte&lt;/td&gt;&lt;/tr&gt;&lt;tr&gt;&lt;td style=&quot;text-align: left;&quot;&gt;Bloqué&lt;/td&gt;&lt;td style=&quot;text-align: right;&quot;&gt;Booléen&lt;/td&gt;&lt;/tr&gt;&lt;/tbody&gt;&lt;/table&gt;" style="verticalAlign=top;align=center;overflow=fill;html=1;rounded=0;shadow=0;comic=0;labelBackgroundColor=none;strokeColor=#000000;strokeWidth=1;fillColor=#ffffff;fontFamily=Verdana;fontSize=12;fontColor=#000000;" parent="1" vertex="1">
          <mxGeometry x="680" y="334" width="230" height="120" as="geometry" />
        </mxCell>
        <mxCell id="doX4jDXikGPnbUZMQCEO-19" value="&lt;div style=&quot;box-sizing: border-box ; width: 100% ; padding: 2px&quot;&gt;&lt;span style=&quot;background-color: rgb(255, 255, 255);&quot;&gt;&lt;b&gt;Contenir&lt;/b&gt;&lt;/span&gt;&lt;/div&gt;&lt;hr&gt;&lt;table style=&quot;width: 100% ; font-size: 1em&quot; cellpadding=&quot;2&quot; cellspacing=&quot;0&quot;&gt;&lt;tbody&gt;&lt;tr&gt;&lt;td style=&quot;text-align: left;&quot;&gt;&lt;/td&gt;&lt;td style=&quot;text-align: right&quot;&gt;&lt;br&gt;&lt;/td&gt;&lt;/tr&gt;&lt;/tbody&gt;&lt;/table&gt;" style="verticalAlign=top;align=center;overflow=fill;html=1;rounded=1;shadow=0;comic=0;labelBackgroundColor=none;strokeColor=#000000;strokeWidth=1;fillColor=#ffffff;fontFamily=Verdana;fontSize=12;fontColor=#000000;" parent="1" vertex="1">
          <mxGeometry x="720" y="577" width="150" height="55" as="geometry" />
        </mxCell>
        <mxCell id="doX4jDXikGPnbUZMQCEO-20" value="" style="endArrow=none;html=1;exitX=0.5;exitY=0;exitDx=0;exitDy=0;startArrow=none;entryX=0.5;entryY=1;entryDx=0;entryDy=0;" parent="1" source="doX4jDXikGPnbUZMQCEO-22" target="doX4jDXikGPnbUZMQCEO-17" edge="1">
          <mxGeometry width="50" height="50" relative="1" as="geometry">
            <mxPoint x="385" y="169.18252294604872" as="sourcePoint" />
            <mxPoint x="490" y="304" as="targetPoint" />
          </mxGeometry>
        </mxCell>
        <mxCell id="doX4jDXikGPnbUZMQCEO-21" value="" style="endArrow=none;html=1;entryX=0.5;entryY=1;entryDx=0;entryDy=0;exitX=0.5;exitY=0;exitDx=0;exitDy=0;" parent="1" source="doX4jDXikGPnbUZMQCEO-18" target="doX4jDXikGPnbUZMQCEO-22" edge="1">
          <mxGeometry width="50" height="50" relative="1" as="geometry">
            <mxPoint x="490" y="384" as="sourcePoint" />
            <mxPoint x="490" y="328.99" as="targetPoint" />
          </mxGeometry>
        </mxCell>
        <mxCell id="doX4jDXikGPnbUZMQCEO-22" value="1,1" style="text;html=1;align=center;verticalAlign=middle;resizable=0;points=[];autosize=1;" parent="1" vertex="1">
          <mxGeometry x="775" y="244" width="40" height="30" as="geometry" />
        </mxCell>
        <mxCell id="doX4jDXikGPnbUZMQCEO-23" value="" style="endArrow=none;html=1;entryX=0.5;entryY=1;entryDx=0;entryDy=0;exitX=0.5;exitY=0;exitDx=0;exitDy=0;startArrow=none;" parent="1" source="doX4jDXikGPnbUZMQCEO-25" target="doX4jDXikGPnbUZMQCEO-18" edge="1">
          <mxGeometry width="50" height="50" relative="1" as="geometry">
            <mxPoint x="395" y="179.18252294604872" as="sourcePoint" />
            <mxPoint x="500" y="264" as="targetPoint" />
          </mxGeometry>
        </mxCell>
        <mxCell id="doX4jDXikGPnbUZMQCEO-24" value="" style="endArrow=none;html=1;entryX=0.5;entryY=1;entryDx=0;entryDy=0;exitX=0.5;exitY=0;exitDx=0;exitDy=0;" parent="1" source="doX4jDXikGPnbUZMQCEO-19" target="doX4jDXikGPnbUZMQCEO-25" edge="1">
          <mxGeometry width="50" height="50" relative="1" as="geometry">
            <mxPoint x="500" y="394" as="sourcePoint" />
            <mxPoint x="500" y="338.99" as="targetPoint" />
          </mxGeometry>
        </mxCell>
        <mxCell id="doX4jDXikGPnbUZMQCEO-25" value="1,1" style="text;html=1;align=center;verticalAlign=middle;resizable=0;points=[];autosize=1;" parent="1" vertex="1">
          <mxGeometry x="775" y="511" width="40" height="30" as="geometry" />
        </mxCell>
        <mxCell id="doX4jDXikGPnbUZMQCEO-26" value="" style="endArrow=none;html=1;entryX=0;entryY=0.5;entryDx=0;entryDy=0;startArrow=none;" parent="1" target="doX4jDXikGPnbUZMQCEO-19" edge="1">
          <mxGeometry width="50" height="50" relative="1" as="geometry">
            <mxPoint x="680" y="604" as="sourcePoint" />
            <mxPoint x="510" y="274" as="targetPoint" />
          </mxGeometry>
        </mxCell>
        <mxCell id="doX4jDXikGPnbUZMQCEO-27" value="" style="endArrow=none;html=1;exitX=1;exitY=0.5;exitDx=0;exitDy=0;" parent="1" source="bio7cnZPhz_ygDP4MrID-3" edge="1">
          <mxGeometry width="50" height="50" relative="1" as="geometry">
            <mxPoint x="510" y="404" as="sourcePoint" />
            <mxPoint x="650" y="605" as="targetPoint" />
          </mxGeometry>
        </mxCell>
        <mxCell id="doX4jDXikGPnbUZMQCEO-28" value="0,n" style="text;html=1;align=center;verticalAlign=middle;resizable=0;points=[];autosize=1;" parent="1" vertex="1">
          <mxGeometry x="640" y="589.5" width="40" height="30" as="geometry" />
        </mxCell>
        <mxCell id="doX4jDXikGPnbUZMQCEO-35" value="" style="endArrow=none;html=1;entryX=0;entryY=0.5;entryDx=0;entryDy=0;exitX=1;exitY=0.5;exitDx=0;exitDy=0;startArrow=none;" parent="1" source="doX4jDXikGPnbUZMQCEO-37" target="doX4jDXikGPnbUZMQCEO-17" edge="1">
          <mxGeometry width="50" height="50" relative="1" as="geometry">
            <mxPoint x="500" y="324" as="sourcePoint" />
            <mxPoint x="375" y="189" as="targetPoint" />
          </mxGeometry>
        </mxCell>
        <mxCell id="doX4jDXikGPnbUZMQCEO-36" value="" style="endArrow=none;html=1;entryX=0;entryY=0.5;entryDx=0;entryDy=0;exitX=1;exitY=0.5;exitDx=0;exitDy=0;startArrow=none;" parent="1" source="bio7cnZPhz_ygDP4MrID-1" target="doX4jDXikGPnbUZMQCEO-37" edge="1">
          <mxGeometry width="50" height="50" relative="1" as="geometry">
            <mxPoint x="260" y="189" as="sourcePoint" />
            <mxPoint x="375" y="189" as="targetPoint" />
          </mxGeometry>
        </mxCell>
        <mxCell id="doX4jDXikGPnbUZMQCEO-37" value="0,n" style="text;html=1;align=center;verticalAlign=middle;resizable=0;points=[];autosize=1;" parent="1" vertex="1">
          <mxGeometry x="620" y="164" width="40" height="30" as="geometry" />
        </mxCell>
        <mxCell id="doX4jDXikGPnbUZMQCEO-38" value="&lt;div style=&quot;box-sizing: border-box ; width: 100% ; padding: 2px&quot;&gt;&lt;span style=&quot;background-color: rgb(255, 255, 255);&quot;&gt;&lt;b&gt;Commenter&lt;/b&gt;&lt;/span&gt;&lt;/div&gt;&lt;hr&gt;&lt;table style=&quot;width: 100% ; font-size: 1em&quot; cellpadding=&quot;2&quot; cellspacing=&quot;0&quot;&gt;&lt;tbody&gt;&lt;tr&gt;&lt;td style=&quot;text-align: left;&quot;&gt;&lt;br&gt;&lt;/td&gt;&lt;td style=&quot;text-align: right&quot;&gt;&lt;br&gt;&lt;/td&gt;&lt;/tr&gt;&lt;/tbody&gt;&lt;/table&gt;" style="verticalAlign=top;align=center;overflow=fill;html=1;rounded=1;shadow=0;comic=0;labelBackgroundColor=none;strokeColor=#000000;strokeWidth=1;fillColor=#ffffff;fontFamily=Verdana;fontSize=12;fontColor=#000000;" parent="1" vertex="1">
          <mxGeometry x="980" y="367" width="110" height="55" as="geometry" />
        </mxCell>
        <mxCell id="doX4jDXikGPnbUZMQCEO-39" value="" style="endArrow=none;html=1;startArrow=none;exitX=1.025;exitY=0.533;exitDx=0;exitDy=0;exitPerimeter=0;" parent="1" source="doX4jDXikGPnbUZMQCEO-41" target="doX4jDXikGPnbUZMQCEO-38" edge="1">
          <mxGeometry width="50" height="50" relative="1" as="geometry">
            <mxPoint x="310" y="178.18252294604872" as="sourcePoint" />
            <mxPoint x="405" y="556" as="targetPoint" />
            <Array as="points">
              <mxPoint x="1035" y="285" />
            </Array>
          </mxGeometry>
        </mxCell>
        <mxCell id="doX4jDXikGPnbUZMQCEO-40" value="" style="endArrow=none;html=1;exitX=0.849;exitY=0.004;exitDx=0;exitDy=0;exitPerimeter=0;" parent="1" source="doX4jDXikGPnbUZMQCEO-18" target="doX4jDXikGPnbUZMQCEO-41" edge="1">
          <mxGeometry width="50" height="50" relative="1" as="geometry">
            <mxPoint x="490" y="439" as="sourcePoint" />
            <mxPoint x="490" y="528.99" as="targetPoint" />
            <Array as="points">
              <mxPoint x="875" y="284" />
            </Array>
          </mxGeometry>
        </mxCell>
        <mxCell id="doX4jDXikGPnbUZMQCEO-41" value="0,1" style="text;html=1;align=center;verticalAlign=middle;resizable=0;points=[];autosize=1;" parent="1" vertex="1">
          <mxGeometry x="940" y="269" width="40" height="30" as="geometry" />
        </mxCell>
        <mxCell id="doX4jDXikGPnbUZMQCEO-42" value="" style="endArrow=none;html=1;startArrow=none;entryX=0.5;entryY=1;entryDx=0;entryDy=0;entryPerimeter=0;exitX=1.075;exitY=0.5;exitDx=0;exitDy=0;exitPerimeter=0;" parent="1" source="doX4jDXikGPnbUZMQCEO-44" target="doX4jDXikGPnbUZMQCEO-38" edge="1">
          <mxGeometry width="50" height="50" relative="1" as="geometry">
            <mxPoint x="830" y="223.18252294604872" as="sourcePoint" />
            <mxPoint x="925" y="601" as="targetPoint" />
            <Array as="points">
              <mxPoint x="1035" y="526" />
            </Array>
          </mxGeometry>
        </mxCell>
        <mxCell id="doX4jDXikGPnbUZMQCEO-43" value="" style="endArrow=none;html=1;" parent="1" target="doX4jDXikGPnbUZMQCEO-44" edge="1">
          <mxGeometry width="50" height="50" relative="1" as="geometry">
            <mxPoint x="880" y="454" as="sourcePoint" />
            <mxPoint x="1010" y="573.99" as="targetPoint" />
            <Array as="points">
              <mxPoint x="880" y="526" />
            </Array>
          </mxGeometry>
        </mxCell>
        <mxCell id="doX4jDXikGPnbUZMQCEO-44" value="1,1" style="text;html=1;align=center;verticalAlign=middle;resizable=0;points=[];autosize=1;" parent="1" vertex="1">
          <mxGeometry x="940" y="511.00000000000006" width="40" height="30" as="geometry" />
        </mxCell>
      </root>
    </mxGraphModel>
  </diagram>
</mxfile>
